<?xml version="1.0" encoding="utf-8"?>

<!DOCTYPE svg PUBLIC "-//W3C//DTD SVG 1.1//EN" "http://www.w3.org/Graphics/SVG/1.1/DTD/svg11.dtd">
<svg version="1.1" id="Layer_1" xmlns="http://www.w3.org/2000/svg" xmlns:xlink="http://www.w3.org/1999/xlink" x="0px" y="0px"
	 viewBox="0 0 1010 1048" enable-background="new 0 0 1010 1048" xml:space="preserve">
<g>
	<path d="M403.81,35.64c7.22-2.03,12.39-9.12,20.15-9.45c10.13,0.85,20.14,2.82,30.11,4.77c2.33,0.57,4.87,0.83,6.86,2.3
		c1,2.12-0.54,5.4,1.93,6.7c8.77,5.34,17.86,10.12,26.56,15.58c5.42,3.47,11.03,6.86,15.35,11.72c6.06,6.6,8.85,15.41,14.54,22.28
		c9.48,11.33,22.49,18.91,32.46,29.76c6,6.36,11.1,13.49,17,19.93c3.62,4.08,8.76,6.69,11.68,11.39c7.43-1.01,15.01-1.68,22.18-4.03
		c4.72-1.91,2.28-8.42,5.31-11.6c2.92-2.52,6.95,1.4,9.87-1.1c7.68-5.55,15.07-12.11,24.42-14.67c6.91-1.67,13.58,1.77,20.12,3.53
		c37.46,12.71,73.91,28.15,110.9901,41.89c3.16,1.09,6.2599,2.44,9.58,2.98c5.24-0.19,8.89-4.71,13.87-5.78
		c5.08-1.16,10.71-1.49,15.4901,0.96c5.2599,2.78,9.41,7.18,13.53,11.38c3.22,3.59,6.95,7.61,6.87,12.76
		c-0.19,4.07-1.13,8.12-0.75,12.22c5.87,0.6,11.68-5.4,17.26-1.39c11.77,7.96,22.4,17.5,32.92,27.03
		c14.59,13.93,29.25,28.48,38.61,46.6c11.98,22.2,14.94,47.67,23.88,71.03c6.27,17.54,11.98,35.28,18.34,52.79
		c2.51,7.32,8.21,13.24,9.56,21c1.95,11.43,2.55,23.07,5.13,34.4c3.44,15.44,10.56,29.68,16.38,44.3c-0.39,0.25-1.19,0.74-1.59,0.98
		c-2.69-3.34-4.23-7.39-6.17-11.17c-5-10.54-10.1-21.07-14.02-32.07c-3.6-10.27-4.33-21.21-6.04-31.88
		c-1.01-6.91-5.76-12.31-8.3-18.63c-7.84-19.04-15.53-38.14-22.73-57.43c-3.89-10.22-5.94-20.99-8.6299-31.55
		c-1.64-6.76-5.46-12.66-8.6-18.78c7.45,38.61,14.43,77.33,23.26,115.65c5.41,23.35,13.73,45.87,19.97,68.98
		c3.73,13.77,6.05,27.87,8.61,41.89c2.85,16.89,5.63,33.92,5.31,51.1c0.28,14.65-3.78,28.93-8.26,42.74
		c-2.87,8.09-5.64,16.28-9.85,23.79c-0.46-0.27-1.3799-0.8-1.84-1.06c0.09-3.47,1.64-6.7,2.42-10.04
		c4.31-15.82,8.95-31.94,8.42-48.48c-0.99-16.4-3.55-32.67-6.5099-48.81c-2.66-13.75-5.33-27.56-10.09-40.76
		c-3.66-9.87-6.93-20.14-13.13-28.77c-0.46,2.76-0.86,5.53-1.06,8.33c-0.78,19.66-0.53,39.35-0.19,59.02
		c0.3,13.42-0.1,27.14,3.92,40.11c3.3,11.31,2.23,23.25,0.9,34.77c-1.07,8.12-2.19,16.3-4.86,24.08c-1.54,4.39-2.82,9.08-6.04,12.58
		c-1.06-1.31-1.81-2.81-1.39-4.51c1.09-15.98,3.28-31.93,2.81-47.97c-0.11-7.2401-3.01-14-5.93-20.4901
		c-2.54-5.17-5.2-10.44-9.22-14.63c0.28,15.61,2.54,31.1,4.06,46.61c1.62,13.17,2.65,26.39,4.03,39.58
		c1.78,14.59,3.39,29.23,3.68,43.94c-0.01,10.68,1.23,21.33,1.15,32.02c0.19,14.74,0.67,29.92-4.03,44.1
		c-4.83,12.33-13.89,22.41-23.21,31.57c-4.62,4.25-9.2,8.88-15,11.48c-0.33-0.36-0.99-1.07-1.32-1.42c1.07-4.97,4.4901-9,6.86-13.4
		c5.94-9.96,12.54-19.55,17.75-29.94c-6.29,3.56-11.26,9.44-18.23,11.71c-3.17,1.07-4.94-2.54-4.7-5.18
		c0.67-10.36,4.02-20.48,3.39-30.94c-0.84-15.48-1.21-31.08-3.87-46.37c-1.71,18.6-1.44,37.88-8.35,55.55
		c-4.28,11.26-9.71,22.05-15.46,32.6201c-1.65,2.91-2.88,6.24-5.57,8.39c-0.47-1.29-0.37-2.5,0.31-3.61
		c3.79-6.84,7.86-13.79,9.18-21.6c1.14-8.95,0.19-18.1,2.11-26.96c2.35-11.23,6.04-22.11,8.93-33.2
		c-7.89,19.18-15.5,38.49-22.03,58.18c-2.61,7.02-2.19,14.62-1.87,21.96c0.1,4.76,1.23,9.58-0.04,14.29
		c-1.22-0.41-2.72-0.46-3.35-1.75c-3.96-5.75-6.46-12.33-9.18-18.7c-4.52-11.58-8.76-23.46-10.31-35.85
		c-1.61-26.06,1.29-52.11,2.83-78.1c-8.73,25.66-9.67,53.17-8.16,80.01c0.3,14.91,3.84,29.47,5.61,44.22
		c0.41,1.95-0.09,3.82-1.23,5.44c-3.6299-3.07-5.02-7.76-6.91-11.93c-4.76-12.15-9.02-24.62-11.02-37.55
		c-1.75-21.31-1.14-42.71-1.05-64.07c0.03-14.52,0.76-29.08-0.23-43.58c-3.72,5.66-6.08,12.08-8.09,18.51
		c-3.79,11.47,0.82,23.39,0.12,35.09c-0.2,8.28-3.01,16.17-6.51,23.58c-10.68,22.68-23.3199,44.54-31.47,68.34
		c-12.46,35.94-22.99,72.5-34.21,108.84c-3.2,11.19-7.84,21.87-12.56,32.48c-2.62,6.68-6.38,12.81-9.88,19.06
		c-6.02,10.77-11.53,22.18-13.19,34.54c-1.69,14.33-0.35,28.86,2.32,42.98c0.94,3.9901,1.48,8.29,3.84,11.77
		c2.88,3.67,7.6,5.02,11.24,7.77c7.11,5.39,15.13,9.53,21.73,15.61H61.23c1.7-2.98,3.41-6,4.49-9.27c1.11-3.49-0.88-7.21,0.23-10.64
		c1.42-3.2799,6.68-0.6799,7.87-4.11c3.52-8.16,5.52-17.64,12.64-23.63c4.45-4.25,11.01-6.46,13.74-12.33
		c1.46-2.59,2.11-6.69-1.05-8.33c-3.67-2.3-7.33-5.12-8.55-9.51c-2.16-5.37,1.39-10.45,3.04-15.37c1.76-5.26,5.65-10.82,2.93-16.46
		c-3.62-7.27-8.8-13.74-14.64-19.36c-7.53-8.41-8.8-20.19-9.77-30.95c-3.32-33.98-6.27-67.98-9.13-102
		c-2.6-32.65-5.4-65.29-6.89-98.0099c-0.76-35.73,0.78-71.47,3.91-107.05c1.37-15.72,3.93-31.29,6.62-46.82
		c2.63-16.91,4.71-34.01,9.94-50.36c7.4-24.12,20.77-45.77,34.46-66.75c10.01-15.46,19.85-31.13,31.68-45.29
		c5.78-7,12.97-12.64,20.58-17.51c3.86-2.67,8.31-4.64,11.45-8.22c1.82-1.92,3.54-4.24,6.22-4.98c2.33-0.2,4.53,0.9,6.83,1.12
		c1.76-0.47,2.54-2.44,3.72-3.68c16.97-22.91,33.14-46.4,48.64-70.33c7.96-13.03,15.27-26.61,20.02-41.18
		c6.83-19.37,7.9-40.07,12.17-60.03c3.24-14.87,4.29-30.12,7.81-44.93c2.61-11.28,7.96-21.79,14.82-31.06
		c6.64-8.91,15.18-16.11,23.54-23.33c12.16-9.71,25.89-17.16,39.43-24.73c3.06-1.81,6.64-3.06,8.85-5.99
		c1.23-1.28,2.22-3.16,4.19-3.36c2.39-0.04,4.84,1.78,7.15,0.56c2.18-0.83,4.21-2.21,6.59-2.42c1.86,0.22,3.45,1.29,5.13,2.05
		c2.18-0.91,4.44-2.59,6.93-1.86C399.27,32.88,401.08,35.38,403.81,35.64 M816.58,230.41c-1.47,4.7-6.86,5.62-11.03,6.44
		c-0.11,0.68-0.33,2.05-0.44,2.73c4.44,12.95,8.74,26.14,10.09,39.81c3.42-10.17,5.66-20.76,7.7-31.3
		C824.64,241.4,820.61,235.33,816.58,230.41 M524.77,267.83c-3.78,5.96-3.21,13.71-1.95,20.36c2.97,9.69-0.83,19.65,0.24,29.5
		c7.82-8.08,13.37-18.07,19.12-27.66c3.22-4.92,3.76-11.32,1.66-16.77c-1.41-3.6-6.69-4.88-6.31-9.27c0.5-4.4-0.03-8.82,0.08-13.23
		C533.36,256.47,529.66,262.62,524.77,267.83 M787.52,349.47c-3.83,6.08-7,12.78-12.41,17.67c-3.31,3-6.81,6.13-11.16,7.44
		c-2.68,0.88-6.19-0.4-8.29,1.86c-2.05,7.66-1.58,15.75-1.95,23.62c-0.11,20.19,0.82,40.74,7.08,60.1
		c6.63,21.58,17.3,41.59,25.4,62.6c5.64,14.72,12.04,29.14,17.46,43.94c0.06-1.27-0.04-2.54-0.35-3.75
		c-2.37-14.02-3.83-28.17-6.41-42.15c-3.37-21.12-6.95-43.13-1.2-64.17c-2.61,0.84-3.31-2.5-4.12-4.2
		c-3.92-11.34-6.86-23.39-5.61-35.46c2.03-20.49,6.09-40.7,9.1-61.06c1.22-8.25,3.8-16.28,4.29-24.63
		C794.63,336.79,791.35,343.34,787.52,349.47 M520.51,336.28c-0.93,6.16-6.83,13.12-13.66,10.96c-4.62-1.28-9.92-1.93-13.44-5.46
		c-2.36,0.57-4.66,1.56-6.53,3.13c-3.67,3.49-3.68,9.14-7.11,12.8c-2.01,2.3-3.99,4.85-6.81,6.19c-3.82,1.23-6.59-2.41-9.58-4.05
		c0.31,3.74,1.3,7.43,1.21,11.19c-0.3,4.61-4.62,7.23-8.28,9.15c-1.94,0.85-4.32,2.32-6.32,0.82c-2.37-1.6-5.28-1.86-8.04-2.01
		c-1.75-0.07-3.87,0.61-4.5,2.41c-2.9,7.64-4.42,16.39-10.35,22.42c-7.06,5.15-16.12,1.27-24.05,1.77
		c-8.16,0.73-15.99-2.06-23.81-3.91c-5.24-1.45-10.66-2.25-15.68-4.39c-3.33-1.35-7.42-2.74-10.68-0.48
		c-4.85,3.55-7.67,9.32-8.83,15.1c-0.39,4.2,1.64,8.06,2.75,12c1.21,3.81,1.08,7.9,2.37,11.69c0.81,2.07,2.34,3.75,3.6,5.56
		c12.7,16.85,25.24,33.87,36.35,51.82c11.23,19.09,20.45,39.29,31.54,58.46c1.78,3.36,4.55,6.18,8.08,7.7
		c8.22,3.47,15.38,9.15,21.51,15.58c7.01,7.57,9.43,17.9,14.09,26.86c3.32,6.46,8.42,12.09,10.11,19.33
		c2.07,9.17,1.7,18.66,2.56,27.98c1.32,0.89,3.13,1.71,4.61,0.62c4.9-3.08,9.65-6.4,14.45-9.64c8.42-5.72,15.24-13.45,21.17-21.64
		c3.01-4.25,6.93-7.72,10.8-11.17c11.45-10.52,23.05-20.86,34.52-31.36c2.1-2.23,4.89-3.97,6.29-6.75
		c2.4301-7.82,4.17-15.9,7.65-23.35c4.06-8.41,9.15-17.08,17.8-21.43c10.17-4.6,20.87-7.85,31.41-11.48
		c4.02-1.13,5.04-5.73,5.63-9.32c2.99-18.33,1.84-37,1.64-55.49c0.16-3.43-2.75-5.85-3.59-8.99c-1.06-4.96-1.09-10.09-2.1-15.06
		c-0.79-3.9-3.87-8.03-8.33-7.37c-17.32,0.75-34,5.96-51.07,8.5c-3.58,0.37-7.36,1.81-10.82,0.23c-4.66-1.9-9.7-5.36-10.4-10.74
		c-1.2-5.44-0.19-11.01-0.47-16.52c-0.17-3.83,0.66-8.63-2.92-11.22c-3.34-2.37-5.58-6.36-4.6201-10.54
		c0.16-3.24,3.19-4.78,5.58-6.31c-0.78-0.1-2.34-0.3-3.12-0.39c-4.6-0.35-7.25-5.38-7.31-9.54c-0.38-3.11,3.22-4.36,4.05-6.91
		c-0.05-3.3-0.91-6.61-2.33-9.59c-0.94-2.66-4.26-1.66-6.41-1.98C525.51,341.42,523.02,338.45,520.51,336.28 M803.33,375.36
		c-3.12,7.98-4.93,16.41-6.56,24.81c-2.11,10.46-1.52,21.2-1.09,31.79c0.44,7.35,0.3,14.72,0.64,22.07
		c1.83-7.28,3.84-14.55,4.79-22.02c0.98-6.64,1.15-13.37,1.76-20.05C803.17,399.76,804.05,387.55,803.33,375.36z"/>
</g>
</svg>
